<?xml version="1.0" standalone="no"?>
<!DOCTYPE svg PUBLIC "-//W3C//DTD SVG 20010904//EN"
 "http://www.w3.org/TR/2001/REC-SVG-20010904/DTD/svg10.dtd">
<svg version="1.0" xmlns="http://www.w3.org/2000/svg"
 width="736.000000pt" height="736.000000pt" viewBox="0 0 736.000000 736.000000"
 preserveAspectRatio="xMidYMid meet">
<metadata>
Created by potrace 1.11, written by Peter Selinger 2001-2013
</metadata>
<g transform="translate(0.000000,736.000000) scale(0.100000,-0.100000)"
fill="#000000" stroke="none">
<path d="M36 5985 c-3 -8 -12 -15 -21 -15 -8 0 -15 -7 -15 -15 0 -8 2 -15 5
-15 5 0 55 50 55 55 0 12 -18 3 -24 -10z"/>
<path d="M652 5980 c0 -14 2 -19 5 -12 2 6 2 18 0 25 -3 6 -5 1 -5 -13z"/>
<path d="M450 5952 c0 -25 -42 -46 -75 -38 -15 4 -32 2 -39 -3 -8 -7 -35 -3
-86 15 -40 13 -75 22 -77 20 -10 -10 39 -46 61 -46 14 0 28 -4 31 -10 7 -11
154 -8 173 4 7 4 12 13 12 19 0 7 14 18 30 25 17 8 30 18 30 23 0 5 -13 9 -30
9 -22 0 -30 -5 -30 -18z"/>
<path d="M949 5946 c-13 -28 -51 -41 -79 -26 -12 7 -21 7 -25 0 -8 -13 -72
-13 -80 0 -3 6 -19 10 -34 10 -15 0 -32 5 -39 12 -20 20 -26 -1 -7 -22 10 -11
31 -20 46 -20 15 0 31 -4 34 -10 3 -6 38 -9 80 -7 58 2 78 7 96 25 13 12 35
30 49 41 l25 20 -28 1 c-20 0 -31 -7 -38 -24z"/>
<path d="M1450 5955 c0 -8 6 -15 14 -15 7 0 19 7 26 15 11 13 8 15 -14 15 -16
0 -26 -5 -26 -15z"/>
<path d="M1967 5964 c-4 -4 -4 -10 -2 -14 6 -10 45 0 45 11 0 10 -33 12 -43 3z"/>
<path d="M2470 5955 c0 -17 2 -18 24 -9 23 9 20 24 -4 24 -11 0 -20 -7 -20
-15z"/>
<path d="M2965 5960 c-3 -5 -1 -10 4 -10 6 0 11 5 11 10 0 6 -2 10 -4 10 -3 0
-8 -4 -11 -10z"/>
<path d="M3470 5960 c-13 -8 -13 -10 2 -10 9 0 20 5 23 10 8 13 -5 13 -25 0z"/>
<path d="M3944 5958 c-11 -17 6 -22 22 -7 13 14 13 16 -1 16 -9 0 -18 -4 -21
-9z"/>
<path d="M4450 5960 c0 -5 4 -10 9 -10 6 0 13 5 16 10 3 6 -1 10 -9 10 -9 0
-16 -4 -16 -10z"/>
<path d="M1170 5943 c0 -17 42 -44 59 -38 10 3 24 -1 31 -10 14 -17 65 -20 75
-5 4 6 15 6 30 0 28 -11 70 4 79 27 4 10 1 11 -13 4 -10 -6 -40 -10 -67 -10
-27 1 -57 0 -67 -1 -10 0 -26 5 -34 12 -9 7 -24 12 -34 10 -10 -2 -27 2 -39 8
-11 6 -20 7 -20 3z"/>
<path d="M1710 5934 c0 -8 10 -14 25 -14 14 0 39 -10 54 -21 16 -12 34 -18 40
-15 17 11 13 26 -7 26 -10 0 -23 5 -29 11 -6 6 -27 14 -47 19 -28 6 -36 5 -36
-6z"/>
<path d="M4210 5930 c0 -5 4 -10 9 -10 6 0 13 5 16 10 3 6 -1 10 -9 10 -9 0
-16 -4 -16 -10z"/>
<path d="M1857 5924 c-17 -17 -4 -24 43 -24 28 0 50 5 50 10 0 6 -10 10 -22
10 -13 0 -32 3 -43 6 -11 3 -24 2 -28 -2z"/>
<path d="M2220 5918 c0 -5 10 -8 23 -8 12 0 31 -6 42 -14 15 -10 38 -12 85 -7
67 6 70 13 13 26 -21 4 -33 3 -33 -4 0 -17 -60 -13 -66 4 -6 14 -64 17 -64 3z"/>
<path d="M2730 5920 c-12 -8 -10 -10 10 -10 14 0 36 -7 48 -16 19 -13 28 -14
53 -4 22 10 32 10 43 1 12 -10 20 -9 38 1 l23 13 -30 3 c-16 2 -35 8 -41 13
-7 6 -16 4 -24 -6 -16 -19 -49 -19 -74 0 -23 18 -26 18 -46 5z"/>
<path d="M3224 5919 c-3 -5 6 -9 20 -9 31 0 34 6 6 13 -11 3 -23 1 -26 -4z"/>
<path d="M3340 5910 c0 -5 7 -10 15 -10 8 0 15 5 15 10 0 6 -7 10 -15 10 -8 0
-15 -4 -15 -10z"/>
<path d="M3718 5913 c7 -3 16 -2 19 1 4 3 -2 6 -13 5 -11 0 -14 -3 -6 -6z"/>
<path d="M3835 5910 c3 -5 8 -10 11 -10 2 0 4 5 4 10 0 6 -5 10 -11 10 -5 0
-7 -4 -4 -10z"/>
<path d="M4348 5913 c7 -3 16 -2 19 1 4 3 -2 6 -13 5 -11 0 -14 -3 -6 -6z"/>
<path d="M4810 5910 c0 -5 5 -10 10 -10 6 0 10 5 10 10 0 6 -4 10 -10 10 -5 0
-10 -4 -10 -10z"/>
<path d="M6278 5913 c7 -3 16 -2 19 1 4 3 -2 6 -13 5 -11 0 -14 -3 -6 -6z"/>
<path d="M3760 5899 c0 -5 11 -9 25 -9 14 0 25 2 25 4 0 2 -11 6 -25 8 -14 3
-25 1 -25 -3z"/>
<path d="M3280 5896 c0 -10 28 -13 41 -5 10 6 7 9 -13 9 -16 0 -28 -2 -28 -4z"/>
<path d="M3388 5893 c7 -3 16 -2 19 1 4 3 -2 6 -13 5 -11 0 -14 -3 -6 -6z"/>
<path d="M4758 5893 c7 -3 16 -2 19 1 4 3 -2 6 -13 5 -11 0 -14 -3 -6 -6z"/>
<path d="M5248 5893 c7 -3 16 -2 19 1 4 3 -2 6 -13 5 -11 0 -14 -3 -6 -6z"/>
<path d="M6 5853 c-3 -4 -6 -607 -6 -1342 l1 -1336 24 -18 c20 -14 29 -15 45
-7 18 9 23 7 38 -19 11 -21 25 -31 40 -31 15 0 26 -7 29 -20 4 -14 14 -20 33
-20 31 0 44 -25 28 -54 -7 -12 -5 -16 10 -16 41 0 50 -49 14 -76 -12 -8 -11
-12 2 -23 25 -21 8 -32 -27 -18 -58 24 -88 1 -117 -91 -16 -50 -22 -95 -23
-181 -2 -111 -1 -116 18 -113 11 2 35 6 53 9 18 3 39 0 46 -7 12 -9 20 -8 41
6 l26 17 -23 11 c-13 6 -23 18 -23 26 0 25 34 23 70 -4 18 -14 36 -26 39 -26
10 0 46 -39 46 -50 0 -5 4 -10 9 -10 14 0 83 -114 88 -148 3 -17 9 -32 13 -32
22 0 27 88 6 96 -8 3 -18 19 -21 35 -4 16 -12 32 -18 36 -7 5 -17 23 -24 40
-9 26 -9 33 2 33 7 0 18 7 25 15 7 8 28 15 47 15 l34 0 -6 43 c-8 65 6 141 29
145 32 6 40 -13 21 -50 -9 -18 -18 -52 -20 -76 -2 -24 -5 -46 -8 -48 -9 -9 37
-93 50 -94 7 0 17 8 22 18 14 27 117 96 130 88 16 -10 13 -46 -4 -51 -8 -3
-22 -7 -31 -10 -13 -4 -9 -12 22 -39 45 -39 39 -56 -12 -37 -30 11 -39 10 -59
-3 -32 -21 -46 -48 -61 -121 -15 -66 -19 -205 -6 -205 4 0 25 9 47 20 42 21
85 26 85 10 0 -6 -15 -17 -33 -26 -18 -9 -44 -32 -57 -52 -22 -31 -26 -50 -31
-156 -3 -67 -9 -129 -13 -138 -5 -11 -2 -23 8 -33 21 -21 20 -27 -5 -59 -11
-14 -16 -26 -10 -26 5 0 23 -14 40 -31 17 -17 38 -29 45 -26 8 3 22 -1 33 -8
10 -8 35 -15 56 -15 46 0 47 -23 1 -29 -27 -4 -26 -5 11 -11 77 -11 187 32
215 85 10 19 21 25 45 25 30 0 33 -3 41 -42 4 -24 7 -52 6 -62 -3 -27 14 -35
57 -29 47 8 48 9 19 32 -31 25 -58 99 -39 110 8 5 -10 11 -45 16 -104 13 -159
49 -120 78 14 10 15 18 7 37 -5 14 -13 73 -16 132 l-7 108 -38 30 c-35 27 -40
29 -54 15 -12 -12 -20 -14 -36 -5 -50 27 0 55 76 43 22 -3 45 -11 53 -16 18
-15 81 -115 81 -130 0 -6 5 -19 10 -27 9 -13 11 -13 20 0 19 29 10 57 -34 104
-44 48 -44 49 -50 140 -9 117 -23 176 -51 203 -20 19 -30 21 -80 16 -52 -5
-57 -4 -53 13 2 11 17 22 36 28 38 11 41 22 8 30 -13 3 -26 15 -29 25 -12 46
30 41 97 -12 30 -23 55 -46 55 -50 1 -4 12 -18 26 -31 14 -13 25 -27 25 -31 0
-4 11 -20 25 -37 14 -16 25 -38 25 -49 0 -27 18 -23 26 6 4 16 0 30 -10 41
-10 9 -20 29 -23 45 -3 16 -9 26 -14 24 -10 -7 -29 28 -29 54 0 12 7 21 15 21
7 0 18 7 23 16 6 11 20 14 47 12 35 -3 41 -8 60 -46 11 -23 24 -42 30 -42 5 0
23 16 38 35 37 47 81 69 107 55 26 -14 17 -28 -29 -48 l-36 -15 39 -9 c22 -5
45 -13 53 -19 10 -9 13 -8 13 5 0 9 6 16 13 16 6 0 4 5 -5 11 -23 13 -24 59
-2 59 25 0 187 -126 209 -162 11 -18 25 -49 31 -68 l12 -35 11 28 c15 37 14
47 -4 53 -8 4 -15 12 -15 20 0 8 -8 22 -19 33 -29 29 -32 68 -7 84 55 36 105
27 126 -22 15 -38 27 -38 64 -1 16 16 37 32 47 35 11 4 19 10 19 15 0 4 14 10
30 12 24 4 30 1 30 -14 0 -10 -9 -27 -20 -38 -22 -22 -19 -40 5 -40 17 0 38
-36 30 -50 -10 -15 -30 -12 -58 10 -14 11 -32 20 -39 20 -22 0 -56 -41 -73
-89 -20 -57 -21 -211 -1 -211 7 0 19 7 26 15 7 8 29 15 49 15 20 0 41 4 47 9
5 5 37 15 72 22 113 23 235 -20 322 -113 31 -34 40 -39 40 -24 0 11 -6 26 -14
35 -54 59 -90 91 -101 91 -8 0 -40 14 -72 30 -44 23 -71 30 -115 30 -35 0 -58
4 -58 11 0 11 77 7 178 -9 29 -5 64 -7 78 -4 25 5 25 5 5 23 -11 11 -30 19
-43 18 -23 -1 -22 -1 2 -9 14 -4 18 -9 10 -10 -31 -5 -56 2 -75 21 -20 20 -20
20 3 26 24 6 27 37 4 39 -45 5 -46 6 -19 16 17 6 30 20 34 36 3 15 13 32 22
39 13 10 10 12 -21 13 -20 0 -39 -6 -41 -12 -8 -20 -28 13 -21 35 6 20 -13 50
-27 41 -5 -3 -7 -15 -5 -27 1 -12 1 -16 -1 -10 -3 7 -14 13 -25 13 -15 0 -19
-5 -15 -19 3 -14 1 -18 -9 -14 -8 3 -14 12 -14 20 0 19 27 46 39 39 13 -9 34
61 27 90 -6 23 -26 34 -26 14 0 -5 -9 -10 -20 -10 -23 0 -26 -22 -5 -40 11 -9
12 -17 4 -32 -10 -19 -11 -19 -30 -2 -16 14 -19 27 -15 56 4 28 2 38 -8 38
-15 0 -29 -27 -21 -39 2 -5 -7 -6 -21 -3 -19 3 -26 0 -31 -17 -3 -11 -27 -34
-54 -51 -66 -40 -88 -41 -51 -1 9 10 30 32 45 50 16 17 35 31 42 31 7 0 16 7
19 16 3 9 12 14 20 11 22 -9 26 3 9 29 -9 14 -13 27 -10 30 14 14 95 31 108
23 20 -12 63 -11 94 3 19 9 31 9 44 1 12 -8 28 -7 58 3 25 9 50 11 63 6 31
-11 130 2 140 19 7 10 25 13 68 11 54 -3 60 -2 65 18 6 23 27 19 27 -5 0 -22
35 -27 78 -10 37 15 41 15 75 -4 l36 -20 20 27 c14 19 23 23 28 15 17 -24 58
-25 88 -2 l28 23 15 -22 c10 -15 25 -22 48 -22 29 0 45 11 106 73 40 39 90 81
111 92 l39 20 30 -35 c16 -19 36 -48 45 -64 15 -29 15 -31 -13 -53 -16 -13
-34 -23 -39 -23 -32 0 -195 -203 -195 -242 0 -7 -11 -35 -24 -63 -37 -78 -66
-158 -66 -181 0 -12 -7 -27 -15 -34 -8 -7 -15 -25 -15 -41 0 -15 -4 -30 -9
-33 -5 -3 -12 -22 -16 -42 -3 -20 -12 -50 -20 -68 -7 -17 -28 -70 -46 -118
-27 -71 -37 -88 -54 -88 -19 -1 -19 -1 -1 -15 10 -7 16 -20 13 -27 -2 -7 3
-25 11 -40 15 -26 38 -38 76 -38 11 0 30 -9 42 -21 23 -21 45 -25 80 -14 17 5
23 2 28 -19 4 -17 19 -33 41 -43 31 -15 36 -15 57 -1 22 15 25 14 46 -9 20
-23 28 -25 70 -19 43 6 51 3 70 -19 25 -29 48 -32 81 -9 22 16 24 16 33 0 12
-21 90 -22 108 -1 10 12 14 12 26 1 11 -12 63 -14 261 -14 144 0 253 4 260 10
8 6 19 6 32 -1 37 -20 87 -13 105 14 16 24 18 24 41 9 30 -19 58 -12 85 24 18
22 24 24 40 14 34 -21 67 -14 92 18 23 30 25 30 53 16 35 -18 59 -8 83 36 15
26 21 29 51 24 44 -7 66 6 80 45 9 27 4 50 -39 181 -27 82 -54 168 -60 191 -6
23 -15 51 -20 62 -5 11 -24 71 -44 132 -19 62 -46 129 -61 150 -14 21 -25 42
-25 48 0 39 -103 165 -160 195 -20 11 -28 50 -11 50 5 0 28 16 51 35 23 19 48
35 56 35 8 0 36 -20 62 -45 26 -25 50 -45 54 -45 4 0 12 9 19 21 l11 21 22
-21 c26 -24 71 -28 80 -6 7 19 30 19 60 0 21 -14 26 -14 55 2 30 17 33 17 45
1 14 -20 51 -24 61 -8 9 14 51 13 75 -2 16 -10 24 -10 38 0 32 23 43 24 61 8
19 -17 81 -22 81 -6 0 17 18 11 44 -15 30 -30 89 -34 118 -8 16 14 22 15 36 5
32 -23 45 -25 79 -13 26 10 38 10 46 2 16 -16 73 -13 87 4 7 8 18 15 25 15 7
0 18 -7 25 -15 17 -20 70 -19 85 1 8 12 20 15 39 10 15 -4 24 -11 21 -16 -3
-5 -1 -12 5 -15 6 -4 25 -36 42 -72 23 -49 27 -68 19 -76 -9 -9 -13 -6 -17 11
-4 12 -10 22 -14 22 -4 0 -12 11 -18 25 -6 14 -16 25 -22 25 -17 0 -12 -14 16
-43 37 -40 24 -43 -34 -8 -27 17 -54 31 -61 31 -24 0 -9 -28 33 -58 107 -77
173 -147 190 -200 4 -12 11 -22 16 -22 14 0 19 44 7 60 -7 8 -18 27 -25 43 -6
15 -18 27 -26 27 -7 0 -17 12 -21 27 -8 32 21 59 69 66 47 7 64 -2 80 -44 14
-34 19 -38 35 -29 11 5 21 13 23 17 5 13 85 73 97 73 6 0 11 7 11 15 0 21 -7
19 -50 -15 -21 -17 -43 -30 -49 -30 -6 0 -11 -4 -11 -10 0 -5 -7 -10 -15 -10
-15 0 -21 16 -7 22 4 2 27 27 51 56 33 41 41 56 32 65 -9 9 -15 7 -23 -8 -16
-28 -74 -85 -87 -85 -16 0 -13 17 4 24 8 3 15 13 15 23 0 10 7 27 15 37 19 25
20 79 2 74 -6 -3 -14 -15 -15 -29 -2 -13 -10 -32 -18 -43 -8 -11 -14 -29 -14
-39 0 -11 -4 -15 -11 -11 -14 8 -6 121 10 137 8 8 22 8 50 1 42 -12 71 -3 71
21 0 19 24 19 53 0 19 -12 26 -12 54 2 30 14 35 14 79 -7 31 -15 42 -25 33
-30 -9 -6 -5 -24 19 -75 18 -36 32 -70 32 -76 0 -16 -38 9 -44 29 -3 9 -16 23
-28 31 -23 14 -23 14 -4 -8 28 -31 10 -39 -34 -14 -33 20 -39 20 -44 7 -8 -21
-8 -24 5 -24 27 0 100 -68 191 -179 6 -7 19 -30 28 -50 l18 -36 12 26 c11 23
9 30 -9 48 -12 12 -21 25 -21 30 0 4 -11 20 -25 35 -14 15 -25 36 -25 47 0 55
103 81 134 34 9 -13 16 -33 16 -44 0 -29 19 -36 40 -13 17 18 17 22 4 41 -14
20 -13 24 15 60 17 21 37 44 46 51 16 13 21 50 6 50 -5 0 -15 -10 -24 -22 -28
-44 -76 -93 -83 -86 -4 4 7 35 25 69 17 33 31 67 31 74 0 8 22 15 65 20 60 6
95 23 95 46 0 5 19 9 43 9 23 0 53 7 67 15 14 8 33 18 43 21 9 4 20 17 23 29
4 17 16 25 41 30 44 8 113 50 113 69 0 7 17 26 38 42 86 66 142 157 121 196
-7 13 -7 23 -2 27 6 3 22 25 36 48 14 23 31 44 37 48 5 3 10 41 10 85 0 73 -2
80 -27 98 -30 22 -26 52 7 52 19 0 20 6 20 129 0 120 -1 129 -20 134 -26 7
-26 39 0 62 17 15 20 31 20 101 0 60 -4 87 -15 97 -25 26 -83 40 -138 33 -29
-4 -130 -11 -225 -15 -96 -5 -176 -12 -179 -14 -2 -3 7 -23 21 -44 36 -52 34
-94 -5 -127 -17 -14 -38 -26 -46 -26 -11 0 -7 -7 11 -21 48 -38 21 -116 -49
-139 -40 -13 -43 -20 -15 -45 29 -26 28 -98 -2 -119 -12 -9 -30 -16 -40 -16
-22 0 -23 -14 -3 -34 8 -8 15 -23 15 -34 0 -26 -63 -81 -101 -89 -36 -7 -43
-17 -24 -33 17 -14 19 -47 6 -83 -11 -28 -65 -54 -84 -40 -36 28 -45 23 -44
-24 2 -42 -1 -48 -30 -65 -30 -18 -34 -18 -63 -3 -18 9 -39 14 -47 11 -14 -6
-14 -8 1 -25 15 -17 15 -19 -5 -37 -16 -14 -35 -19 -77 -18 -31 1 -58 7 -60
13 -7 22 -31 10 -34 -16 -3 -24 -8 -28 -40 -31 -22 -2 -47 3 -59 12 -20 13
-23 12 -44 -12 -19 -22 -32 -27 -72 -27 -26 0 -58 -6 -70 -13 -34 -19 -68 -14
-97 14 l-26 27 -21 -27 c-25 -32 -68 -35 -94 -6 l-18 20 -22 -20 c-29 -27 -67
-25 -94 4 l-22 24 -26 -24 c-39 -36 -83 -27 -83 18 0 10 -4 18 -10 18 -5 0
-10 -6 -10 -13 0 -8 -8 -21 -18 -30 -20 -19 -52 -23 -52 -7 0 6 -5 10 -11 10
-6 0 -19 10 -29 22 -17 22 -19 22 -37 5 -22 -19 -73 -23 -91 -5 -9 9 -16 8
-30 -5 -28 -26 -78 -22 -97 7 l-16 24 -26 -24 c-14 -13 -32 -24 -39 -24 -23 0
-44 12 -44 26 0 20 -13 17 -33 -6 -21 -25 -72 -27 -86 -2 -8 12 -13 14 -18 5
-13 -18 -59 -26 -83 -13 -20 10 -21 17 -15 58 4 26 10 52 15 57 4 6 11 37 15
69 9 73 23 106 46 106 10 0 24 7 33 15 19 19 32 19 40 -1 5 -13 16 -15 54 -11
88 10 159 25 180 38 16 10 26 10 47 1 34 -16 75 -15 79 1 16 52 14 50 42 28
31 -25 71 -27 94 -6 15 14 21 13 59 -7 41 -21 42 -22 72 -4 17 10 40 16 52 13
12 -3 39 -10 59 -15 40 -10 58 -1 58 31 0 17 2 17 22 3 41 -29 138 -15 138 19
0 19 -2 19 94 -2 76 -16 80 -16 90 1 6 10 18 27 27 39 15 19 16 19 42 2 27
-18 47 -17 132 3 79 19 89 31 63 87 -6 14 -8 28 -5 32 4 3 31 0 60 -7 48 -11
57 -10 79 4 49 32 58 95 20 139 -14 15 -14 17 0 17 27 0 128 72 134 96 6 24
-10 64 -26 64 -6 0 -10 7 -10 15 0 8 4 15 8 15 18 0 72 58 72 76 0 11 -18 38
-41 59 l-40 40 -562 -3 c-309 -1 -640 -5 -734 -8 -170 -6 -173 -6 -173 14 0
12 5 24 10 27 6 3 10 27 10 53 0 35 -6 55 -25 77 -20 25 -24 27 -25 11 0 -11
5 -33 11 -50 15 -41 -13 -105 -55 -125 -43 -20 -194 -22 -231 -3 -16 9 -37 15
-46 14 -9 -2 -19 4 -22 13 -4 8 -16 15 -27 15 -11 0 -20 5 -20 10 0 6 -11 10
-25 10 -14 0 -25 -4 -25 -10 0 -5 6 -10 13 -10 7 0 30 -9 52 -20 22 -11 48
-20 59 -20 13 0 17 -3 10 -10 -5 -5 -98 -11 -213 -12 -153 -2 -205 -6 -209
-15 -2 -7 3 -13 11 -13 17 0 136 -86 190 -139 87 -82 159 -209 197 -346 36
-129 26 -355 -19 -460 -5 -11 -15 -35 -22 -53 -18 -49 -78 -139 -134 -201 -48
-53 -146 -131 -163 -131 -5 0 -15 -6 -21 -14 -16 -19 -131 -65 -211 -84 -92
-22 -273 -20 -342 4 -67 24 -196 86 -227 111 -44 34 -176 169 -189 193 -8 14
-30 58 -51 98 l-38 74 -17 -27 c-13 -20 -24 -26 -46 -23 -17 1 -37 -5 -50 -17
-18 -16 -25 -17 -52 -7 -24 9 -35 8 -54 -5 -17 -11 -36 -13 -68 -9 -27 4 -47
3 -51 -4 -8 -12 -55 -13 -55 -1 0 20 -41 23 -61 5 -18 -16 -21 -16 -54 2 -19
10 -35 23 -35 29 -1 5 -11 -3 -24 -18 -27 -34 -72 -34 -90 -2 -6 11 -12 22
-14 24 -1 3 -8 -3 -15 -13 -17 -23 -76 -24 -93 -2 -11 16 -15 15 -43 -13 -18
-17 -39 -31 -47 -31 -26 0 -54 20 -54 38 -1 13 -6 11 -23 -10 -27 -33 -46 -35
-78 -9 -23 19 -24 19 -52 -5 -35 -29 -47 -30 -81 -3 -24 19 -29 20 -44 7 -38
-33 -78 -29 -109 11 -12 14 -14 14 -27 -2 -20 -26 -88 -34 -108 -13 -20 19
-40 20 -56 4 -10 -10 -19 -8 -45 7 -17 10 -37 26 -44 34 -10 14 -13 14 -30 -2
-37 -33 -103 -12 -103 32 0 21 -1 21 -30 6 -62 -32 -149 -11 -137 34 4 18 1
21 -22 21 -15 0 -31 -4 -36 -9 -15 -13 -74 16 -87 44 -9 19 -7 29 6 50 22 34
15 41 -19 19 -21 -14 -34 -15 -63 -8 -37 9 -37 9 -40 66 -3 49 0 58 20 73 13
10 16 15 6 12 -28 -10 -85 12 -117 45 -35 36 -39 62 -13 77 16 10 15 12 -8 31
-14 11 -30 20 -36 20 -33 0 -23 92 14 133 l26 27 -35 0 c-37 1 -56 12 -82 50
-24 35 -21 67 8 86 30 20 32 34 5 34 -29 0 -70 50 -70 84 0 17 12 47 26 68
l27 38 216 0 c119 0 222 -4 230 -9 11 -7 10 -13 -8 -32 -31 -33 -26 -55 20
-97 l40 -38 -20 -18 c-36 -33 -27 -67 29 -109 27 -20 59 -37 70 -37 24 0 24 3
0 -45 -11 -22 -20 -46 -20 -55 0 -26 49 -72 71 -65 10 3 27 7 38 10 10 3 30 1
45 -4 23 -9 25 -13 16 -37 -11 -28 -7 -38 40 -82 22 -21 32 -23 79 -19 30 3
59 11 64 16 19 19 47 12 59 -14 6 -14 23 -27 42 -31 39 -9 98 -5 111 7 17 17
42 9 53 -16 9 -20 19 -25 49 -25 21 0 50 6 65 14 25 13 27 12 32 -9 8 -32 26
-36 74 -14 41 19 42 19 78 0 37 -20 57 -18 103 11 17 10 23 9 39 -5 23 -21 55
-22 72 -2 17 21 37 19 43 -5 7 -28 32 -35 76 -20 31 10 43 10 62 -1 23 -12 78
-24 165 -35 29 -4 44 -1 53 9 11 14 16 14 46 1 61 -25 84 -17 128 46 l17 24
24 -23 c14 -13 29 -20 35 -16 6 3 11 34 11 69 0 85 32 199 83 298 49 96 165
222 260 282 49 32 73 64 50 67 -14 2 -286 8 -360 9 -42 0 -73 4 -73 10 0 6 7
10 15 10 8 0 42 13 77 29 159 72 253 103 353 115 23 3 54 51 41 63 -5 4 -11 2
-13 -4 -3 -8 -23 -13 -52 -13 -49 0 -142 -21 -195 -44 -17 -7 -76 -33 -131
-56 -55 -23 -131 -58 -169 -76 -61 -30 -77 -34 -150 -34 -70 0 -86 3 -105 21
-28 26 -41 60 -41 107 0 27 -3 33 -12 24 -16 -16 -17 -71 -2 -109 12 -30 11
-36 -6 -35 -3 0 -124 3 -270 7 -146 4 -268 9 -272 11 -3 2 -117 5 -252 5 -136
1 -246 5 -246 10 0 7 174 15 258 12 6 -1 12 5 12 13 0 10 -13 14 -40 14 -27 0
-40 4 -40 14 0 18 61 30 71 14 35 -57 40 -59 111 -56 37 1 68 6 68 10 0 4 8 5
18 2 14 -5 15 -4 2 5 -9 7 -34 9 -64 5 -43 -6 -47 -5 -35 9 8 8 18 13 22 10 5
-3 4 4 -2 16 -11 19 -9 21 13 21 14 0 29 -7 34 -16 5 -9 17 -14 28 -11 18 5
18 5 -1 12 -26 8 -49 42 -35 50 6 3 10 22 10 41 0 40 20 47 21 7 0 -16 3 -22
6 -15 2 6 11 12 19 12 16 0 18 22 5 68 -9 29 -7 33 15 38 23 6 34 24 15 24
-17 0 -20 65 -22 405 -2 280 -5 343 -17 357 -8 9 -12 23 -9 30 2 7 -2 28 -9
47 -18 43 -19 41 21 41 25 0 35 4 35 16 0 8 -5 12 -10 9 -6 -4 -13 7 -16 24
-5 24 -12 31 -30 31 -13 0 -24 -4 -24 -10 0 -5 5 -10 10 -10 15 0 12 -37 -3
-52 -8 -7 -12 -21 -9 -31 4 -15 0 -14 -21 7 -23 23 -26 35 -28 104 -2 87 4
106 31 99 10 -3 28 4 39 14 19 18 20 18 23 -3 3 -21 4 -21 22 6 12 19 14 31 8
35 -6 4 -12 40 -14 81 -2 51 -7 75 -15 76 -7 1 -24 2 -38 3 -14 0 -25 5 -25
10 0 5 9 7 20 4 21 -6 80 14 80 27 0 10 -25 20 -53 21 -17 1 -16 3 8 10 16 4
232 9 480 10 618 2 1202 12 1211 22 4 4 5 9 2 12 -2 3 -182 7 -399 10 -760 10
-914 14 -956 21 -29 4 -48 2 -58 -6 -8 -7 -23 -9 -32 -5 -10 3 -292 8 -628 11
-335 2 -621 7 -635 11 -41 10 -184 11 -197 1 -7 -5 -17 -6 -24 -2 -7 4 -156 9
-333 10 -177 2 -369 6 -428 8 -58 3 -109 2 -112 -1z m1952 -115 c9 -9 12 -9
12 0 0 7 15 12 37 12 43 0 35 -15 -16 -30 -25 -7 -33 -6 -38 5 -3 8 -9 12 -14
9 -5 -3 -9 0 -9 5 0 14 13 14 28 -1z m72 -1518 c17 -10 16 -12 -27 -34 -41
-20 -51 -20 -49 2 0 9 -5 16 -11 15 -7 -2 -13 1 -13 6 0 6 17 12 38 14 20 2
39 4 42 5 3 1 12 -2 20 -8z m5205 -990 c-3 -5 -10 -10 -16 -10 -5 0 -9 5 -9
10 0 6 7 10 16 10 8 0 12 -4 9 -10z m-6265 -140 c0 -5 -8 -10 -17 -10 -15 0
-16 2 -3 10 19 12 20 12 20 0z m5615 -10 c3 -5 2 -10 -4 -10 -5 0 -13 5 -16
10 -3 6 -2 10 4 10 5 0 13 -4 16 -10z m-5418 -16 c-3 -3 -12 -4 -19 -1 -8 3
-5 6 6 6 11 1 17 -2 13 -5z m-353 -59 c-10 -8 -26 -14 -34 -15 -8 0 -2 9 15
20 33 22 49 18 19 -5z m5881 15 c3 -5 -1 -10 -9 -10 -8 0 -18 5 -21 10 -3 6 1
10 9 10 8 0 18 -4 21 -10z m-451 -15 c3 -8 1 -15 -3 -15 -5 0 -11 7 -15 15 -3
8 -1 15 3 15 5 0 11 -7 15 -15z m-4944 -9 c0 -3 -4 -8 -10 -11 -5 -3 -10 -1
-10 4 0 6 5 11 10 11 6 0 10 -2 10 -4z m1783 -33 c-6 -36 -31 -82 -44 -83 -3
0 -6 12 -6 28 1 15 -1 34 -4 42 -3 11 3 14 19 13 15 -2 21 1 16 8 -5 9 10 28
23 29 1 0 -1 -17 -4 -37z m67 8 c0 -17 6 -31 16 -35 11 -4 13 -13 8 -28 -8
-29 -4 -25 -39 -33 -21 -5 -26 -4 -16 3 10 7 12 24 9 61 -3 28 -3 53 0 56 13
13 22 3 22 -24z m2071 -34 c-8 -8 -11 -8 -11 0 0 6 -3 20 -7 30 -7 17 -6 17
11 0 14 -14 16 -21 7 -30z m-483 17 c38 -18 38 -20 12 -34 -17 -9 -26 -6 -53
20 -29 27 -30 30 -11 30 11 0 35 -7 52 -16z m242 6 c0 -5 -9 -10 -21 -10 -11
0 -17 5 -14 10 3 6 13 10 21 10 8 0 14 -4 14 -10z m80 -15 c0 -14 -4 -25 -10
-25 -8 0 -8 23 -1 48 4 12 11 -3 11 -23z m665 15 c3 -5 1 -10 -4 -10 -6 0 -11
5 -11 10 0 6 2 10 4 10 3 0 8 -4 11 -10z m275 0 c0 -5 -4 -10 -9 -10 -6 0 -13
5 -16 10 -3 6 1 10 9 10 9 0 16 -4 16 -10z m575 -15 c23 -19 26 -25 13 -25
-10 0 -18 4 -18 10 0 5 -11 12 -25 16 -14 3 -25 10 -25 15 0 16 24 9 55 -16z
m-1455 0 c0 -8 -4 -15 -10 -15 -5 0 -10 -6 -10 -14 0 -20 -19 -31 -31 -19 -7
7 -1 16 16 27 14 9 23 21 20 26 -4 6 -1 10 4 10 6 0 11 -7 11 -15z m-2760 -5
c0 -5 -4 -10 -10 -10 -5 0 -10 5 -10 10 0 6 5 10 10 10 6 0 10 -4 10 -10z
m500 1 c0 -12 -28 -22 -34 -12 -3 5 -3 11 1 15 9 9 33 7 33 -3z m1950 -1 c0
-5 -4 -10 -9 -10 -6 0 -13 5 -16 10 -3 6 1 10 9 10 9 0 16 -4 16 -10z m-3875
-10 c-3 -5 -11 -10 -16 -10 -6 0 -7 5 -4 10 3 6 11 10 16 10 6 0 7 -4 4 -10z
m465 6 c0 -3 -4 -8 -10 -11 -5 -3 -10 -1 -10 4 0 6 5 11 10 11 6 0 10 -2 10
-4z m430 0 c0 -3 -4 -8 -10 -11 -5 -3 -10 -1 -10 4 0 6 5 11 10 11 6 0 10 -2
10 -4z m2760 -10 c0 -8 9 -18 21 -21 11 -4 18 -9 15 -13 -3 -3 1 -15 9 -28 10
-15 11 -21 2 -20 -28 6 -47 19 -47 32 0 7 -9 18 -20 24 -11 6 -17 16 -14 25 8
19 34 20 34 1z m-3940 0 c0 -2 -9 -6 -20 -9 -11 -3 -18 -1 -14 4 5 9 34 13 34
5z m2118 -32 l3 -29 -20 25 c-20 25 -19 44 2 37 7 -2 13 -17 15 -33z m2992 20
c0 -8 -4 -12 -10 -9 -5 3 -10 10 -10 16 0 5 5 9 10 9 6 0 10 -7 10 -16z
m-3672 -19 c-3 -3 -9 2 -12 12 -6 14 -5 15 5 6 7 -7 10 -15 7 -18z m827 15 c4
-6 -5 -10 -20 -10 -15 0 -24 4 -20 10 3 6 12 10 20 10 8 0 17 -4 20 -10z
m-200 -10 c3 -5 -1 -10 -9 -10 -8 0 -18 5 -21 10 -3 6 1 10 9 10 8 0 18 -4 21
-10z m2095 6 c0 -3 -4 -8 -10 -11 -5 -3 -10 -1 -10 4 0 6 5 11 10 11 6 0 10
-2 10 -4z m40 -6 c0 -5 -2 -10 -4 -10 -3 0 -8 5 -11 10 -3 6 -1 10 4 10 6 0
11 -4 11 -10z m120 0 c0 -5 -2 -10 -4 -10 -3 0 -8 5 -11 10 -3 6 -1 10 4 10 6
0 11 -4 11 -10z m670 0 c0 -5 -4 -10 -10 -10 -5 0 -10 5 -10 10 0 6 5 10 10
10 6 0 10 -4 10 -10z m-4290 -10 c0 -5 -5 -10 -11 -10 -5 0 -7 5 -4 10 3 6 8
10 11 10 2 0 4 -4 4 -10z m290 -10 c0 -5 -5 -10 -11 -10 -5 0 -7 5 -4 10 3 6
8 10 11 10 2 0 4 -4 4 -10z m3100 -21 c0 -10 -4 -19 -10 -19 -5 0 -10 12 -10
26 0 14 4 23 10 19 6 -3 10 -15 10 -26z m157 14 c2 -6 -8 -13 -22 -15 -27 -6
-32 1 -13 20 14 14 30 11 35 -5z m-1854 -27 c8 -21 -3 -27 -19 -11 -18 17 -18
25 0 25 8 0 16 -6 19 -14z m-1943 -5 c0 -5 -7 -11 -15 -15 -15 -5 -20 5 -8 17
9 10 23 9 23 -2z m4580 -1 c0 -5 -7 -10 -15 -10 -8 0 -15 5 -15 10 0 6 7 10
15 10 8 0 15 -4 15 -10z m-2700 -10 c0 -5 -4 -10 -10 -10 -5 0 -10 5 -10 10 0
6 5 10 10 10 6 0 10 -4 10 -10z m1548 1 c8 -5 12 -16 10 -26 -2 -14 -7 -13
-27 9 -24 26 -13 37 17 17z m252 -22 c0 -12 -27 -11 -35 1 -11 17 5 32 21 19
8 -6 14 -15 14 -20z m668 4 c6 -19 -25 -16 -32 3 -4 11 -1 14 11 12 9 -2 18
-9 21 -15z m-548 -3 c0 -5 -7 -10 -15 -10 -8 0 -15 -5 -15 -12 0 -6 -3 -8 -6
-5 -8 8 14 37 27 37 5 0 9 -4 9 -10z m970 -10 c0 -5 -4 -10 -9 -10 -6 0 -13 5
-16 10 -3 6 1 10 9 10 9 0 16 -4 16 -10z m-151 -19 c8 -5 9 -11 3 -15 -5 -3
-15 1 -22 9 -14 16 -3 20 19 6z m797 -46 c7 -29 -3 -112 -15 -119 -4 -3 -13
22 -20 55 -9 47 -9 64 0 75 17 21 28 17 35 -11z m-5986 -4 c7 -13 7 -22 0 -26
-5 -3 -10 -23 -11 -43 -1 -48 -13 -82 -21 -60 -11 27 -20 126 -13 137 10 17
33 13 45 -8z m6060 9 c13 -8 13 -14 1 -42 -7 -18 -15 -43 -18 -56 -9 -38 -28
-18 -28 29 1 71 13 90 45 69z m-623 -72 c-6 -65 -13 -80 -27 -58 -12 19 -23
106 -16 119 3 5 16 7 27 4 20 -6 21 -11 16 -65z m470 17 c14 -56 17 -95 6 -95
-5 1 -19 23 -32 50 -13 28 -28 50 -33 50 -12 0 -10 24 4 38 23 23 41 8 55 -43z
m-6000 33 c10 -17 21 -128 12 -122 -15 9 -59 94 -59 113 0 24 33 30 47 9z
m243 -27 c0 -20 -76 -111 -92 -111 -14 0 -9 14 23 73 21 39 37 57 50 57 12 0
19 -7 19 -19z m5204 3 c3 -9 6 -41 6 -72 l0 -57 -35 63 c-20 35 -33 67 -30 73
10 15 52 10 59 -7z m-4374 2 c0 -2 -7 -9 -15 -16 -12 -10 -15 -10 -15 4 0 9 7
16 15 16 8 0 15 -2 15 -4z m-1163 -14 c7 -5 26 -35 43 -67 40 -79 40 -103 -2
-71 -10 7 -18 19 -18 25 0 22 -21 52 -31 45 -6 -4 -6 -11 2 -20 20 -24 2 -28
-33 -7 -39 23 -50 53 -19 53 14 0 21 6 21 18 0 30 14 39 37 24z m770 -63 c-9
-107 -23 -110 -37 -8 -10 70 -8 79 22 79 20 0 21 -4 15 -71z m-81 1 c15 -65
18 -108 5 -94 -4 5 -23 37 -41 72 -28 53 -31 65 -19 73 28 18 42 4 55 -51z
m160 18 c-6 -42 -6 -42 10 -20 22 30 54 29 54 -1 0 -28 -94 -125 -105 -108
-10 18 -18 116 -11 145 5 20 13 26 32 26 25 0 25 -2 20 -42z m475 32 c10 0 12
-82 3 -130 l-7 -32 -14 32 c-7 18 -16 58 -20 88 -6 50 -4 55 11 49 10 -4 22
-7 27 -7z m139 -10 c0 -5 -4 -10 -10 -10 -5 0 -10 5 -10 10 0 6 5 10 10 10 6
0 10 -4 10 -10z m44 -12 c9 -35 7 -41 -9 -34 -10 3 -15 -1 -15 -13 0 -22 -60
-100 -77 -100 -7 -1 -13 2 -13 5 0 15 46 100 57 107 7 4 13 14 13 20 0 14 20
37 31 37 4 0 9 -10 13 -22z m-1119 2 c13 -22 -8 -50 -65 -84 -33 -19 -60 -32
-60 -28 0 11 101 122 110 122 5 0 12 -5 15 -10z m1020 -1 c6 -9 1 -28 -29
-101 -18 -45 -27 -32 -22 30 2 31 5 63 5 70 1 15 37 16 46 1z m-161 -11 c9
-29 14 -118 7 -118 -9 0 -61 100 -61 118 0 16 49 16 54 0z m-652 -20 c20 -16
63 -116 54 -126 -4 -4 -12 1 -17 11 -18 30 -57 72 -63 66 -4 -3 5 -18 19 -34
35 -37 25 -42 -24 -11 -22 14 -45 26 -51 26 -5 0 -10 9 -10 20 0 14 7 20 24
20 15 0 26 7 29 20 6 23 17 25 39 8z m591 -61 c17 -31 27 -60 24 -63 -3 -4
-21 10 -40 30 -19 20 -37 36 -41 36 -13 0 -5 -28 14 -45 22 -20 26 -35 10 -35
-6 0 -29 12 -51 27 -44 29 -48 52 -11 68 12 5 25 18 28 28 10 32 36 14 67 -46z
m-219 14 c11 -17 -6 -42 -52 -77 -76 -58 -87 -36 -18 39 43 47 60 55 70 38z
m421 -81 c3 -5 1 -10 -4 -10 -6 0 -11 5 -11 10 0 6 2 10 4 10 3 0 8 -4 11 -10z
m227 -55 c-2 -14 -8 -25 -13 -25 -10 0 -11 12 -3 34 10 25 22 19 16 -9z m65
-51 c-3 -3 -12 -4 -19 -1 -8 3 -5 6 6 6 11 1 17 -2 13 -5z m-1122 -14 c3 -5 1
-10 -4 -10 -6 0 -11 5 -11 10 0 6 2 10 4 10 3 0 8 -4 11 -10z m955 -35 c0 -8
-4 -15 -10 -15 -5 0 -10 -7 -10 -17 0 -9 -3 -14 -6 -10 -9 9 5 57 16 57 6 0
10 -7 10 -15z m155 0 l40 -15 -62 2 c-63 2 -83 13 -40 21 12 2 22 5 22 5 0 1
18 -5 40 -13z m55 -29 c0 -11 -19 -15 -25 -6 -3 5 1 10 9 10 9 0 16 -2 16 -4z
m-142 -75 c3 -8 -1 -12 -9 -9 -7 2 -15 10 -17 17 -3 8 1 12 9 9 7 -2 15 -10
17 -17z m62 -2 c0 -5 -7 -9 -15 -9 -15 0 -20 12 -9 23 8 8 24 -1 24 -14z m-70
-59 c0 -5 -2 -10 -4 -10 -3 0 -8 5 -11 10 -3 6 -1 10 4 10 6 0 11 -4 11 -10z"/>
<path d="M1170 2575 c0 -8 5 -15 10 -15 6 0 10 7 10 15 0 8 -4 15 -10 15 -5 0
-10 -7 -10 -15z"/>
<path d="M3870 5810 c-12 -8 -9 -10 13 -10 15 0 27 5 27 10 0 13 -20 13 -40 0z"/>
<path d="M4100 5784 c0 -12 77 -13 487 -9 489 5 650 13 317 17 -701 7 -804 6
-804 -8z"/>
<path d="M2277 5663 c-14 -13 -6 -32 16 -36 l22 -4 -23 -8 c-18 -6 -20 -10
-10 -16 25 -16 38 -9 38 19 0 37 -25 63 -43 45z"/>
<path d="M3584 5623 c-5 -17 -3 -28 4 -31 7 -2 12 -18 12 -36 0 -18 6 -41 14
-51 13 -18 10 -23 -23 -55 -20 -20 -57 -49 -83 -65 -43 -27 -47 -33 -53 -80
-3 -28 -3 -60 1 -70 26 -78 58 -113 124 -137 27 -9 34 -7 53 10 12 11 40 27
61 36 55 23 95 8 132 -47 15 -23 37 -52 50 -63 22 -21 114 -188 114 -209 1
-18 38 -55 55 -55 24 0 95 41 95 55 0 6 -3 15 -7 19 -8 7 -19 58 -45 196 -9
46 -19 70 -35 83 -28 23 -29 35 -3 57 29 25 16 50 -25 50 -44 0 -110 49 -123
92 -25 80 -24 82 16 97 20 7 68 17 105 23 l68 11 -7 31 c-3 17 -12 34 -18 39
-14 9 -86 -2 -103 -15 -7 -6 -20 -7 -29 -4 -9 4 -22 2 -28 -3 -21 -16 -80 -19
-103 -4 -13 9 -20 19 -17 24 3 5 0 9 -7 9 -6 0 -22 12 -35 27 -13 15 -26 24
-30 20 -4 -3 -28 11 -54 33 -26 22 -53 40 -59 40 -6 0 -14 -12 -17 -27z"/>
<path d="M4010 5421 c-21 -6 -25 -13 -22 -42 4 -50 9 -59 36 -59 59 0 80 41
29 55 -28 7 -28 7 -5 18 12 5 22 16 22 24 0 14 -20 15 -60 4z"/>
<path d="M2192 5340 c0 -14 2 -19 5 -12 2 6 2 18 0 25 -3 6 -5 1 -5 -13z"/>
<path d="M2160 5147 c0 -65 4 -107 10 -107 6 0 10 9 10 19 0 11 5 23 10 26 13
8 12 49 -3 107 -21 78 -27 67 -27 -45z"/>
<path d="M6268 5038 c-9 -7 -26 -43 -38 -80 -13 -40 -28 -68 -36 -68 -8 0 -14
4 -14 9 0 10 -79 71 -93 71 -4 0 0 -12 11 -27 45 -65 68 -143 42 -143 -5 0
-10 7 -10 16 0 17 -40 95 -55 106 -22 16 -26 6 -20 -46 4 -30 2 -69 -3 -87
-49 -159 -53 -221 -23 -290 19 -42 54 -88 69 -90 4 -1 26 -3 50 -4 42 -3 43
-3 29 18 -37 59 -39 94 -7 172 15 37 30 102 30 129 0 14 3 26 8 26 9 0 32 -49
32 -71 0 -9 7 -19 15 -23 8 -3 15 -1 15 4 0 6 6 10 13 10 14 0 42 90 39 127
-1 12 2 24 7 27 14 9 42 -103 47 -189 1 -22 3 -42 3 -44 3 -14 40 37 61 83 25
59 46 75 37 29 -3 -14 4 -56 14 -93 23 -83 14 -125 -37 -170 -20 -17 -34 -34
-31 -37 14 -13 69 11 91 40 60 80 70 145 40 254 -26 96 -35 146 -32 187 5 60
-14 53 -52 -21 -35 -67 -58 -82 -52 -33 1 14 14 47 27 73 14 27 25 51 25 53 0
14 -30 -1 -61 -32 l-38 -37 -15 38 c-9 21 -16 42 -16 48 0 14 -40 77 -49 77
-4 0 -14 -6 -23 -12z m19 -40 c-3 -8 -6 -5 -6 6 -1 11 2 17 5 13 3 -3 4 -12 1
-19z m-170 -310 c-3 -8 -6 -5 -6 6 -1 11 2 17 5 13 3 -3 4 -12 1 -19z m-27
-159 c0 -16 -4 -29 -10 -29 -5 0 -10 16 -10 36 0 21 4 33 10 29 6 -3 10 -19
10 -36z"/>
<path d="M4232 4843 c-1 -7 -9 -13 -17 -13 -8 0 -15 -3 -15 -8 0 -4 -16 -16
-35 -26 -19 -11 -35 -23 -35 -28 0 -12 6 -10 48 12 l37 20 6 -22 c5 -19 7 -20
13 -6 4 9 6 31 3 50 -2 18 -5 27 -5 21z"/>
<path d="M4441 4784 c-19 -14 -46 -27 -60 -31 -39 -9 -109 -42 -117 -54 -8
-13 18 -9 76 11 19 7 46 17 60 22 31 11 109 78 89 77 -8 0 -29 -12 -48 -25z"/>
<path d="M2451 4643 c0 -50 3 -83 9 -83 11 0 12 43 0 115 -7 47 -7 45 -9 -32z"/>
<path d="M4760 4652 c0 -8 8 -26 18 -40 58 -84 66 -149 28 -228 -24 -50 -56
-87 -56 -65 0 6 4 11 8 11 5 0 13 16 19 35 10 30 8 39 -8 58 l-18 22 -1 -32
c0 -25 -4 -31 -16 -26 -12 4 -14 0 -9 -18 4 -20 -2 -29 -36 -53 -43 -30 -107
-39 -158 -21 -20 7 -23 5 -18 -8 5 -12 -5 -10 -41 10 -53 30 -68 46 -76 85 -3
14 -14 29 -24 32 -10 4 -28 15 -40 27 -35 32 -25 6 20 -52 63 -82 110 -129
129 -129 9 0 19 -7 23 -15 3 -8 16 -15 30 -15 14 0 28 -4 31 -10 10 -16 80
-11 127 9 57 24 125 86 149 135 24 51 26 150 2 197 -20 41 -83 109 -83 91z
m-58 -384 c-6 -6 -15 -8 -19 -4 -4 4 -1 11 7 16 19 12 27 3 12 -12z m-52 -18
c0 -5 -14 -10 -31 -10 -17 0 -28 4 -24 10 3 6 17 10 31 10 13 0 24 -4 24 -10z"/>
<path d="M3559 4608 c0 -7 -2 -21 -4 -30 -2 -10 1 -20 6 -24 5 -3 9 11 9 30 0
33 -9 52 -11 24z"/>
<path d="M4560 4613 c-14 -3 -29 -9 -34 -14 -6 -5 -18 -9 -28 -9 -18 0 -25
-24 -10 -34 4 -2 27 5 50 15 35 16 55 19 98 13 30 -3 54 -10 54 -15 0 -5 5 -9
10 -9 20 0 9 20 -17 33 -34 17 -89 26 -123 20z"/>
<path d="M3700 4493 c0 -9 -7 -24 -16 -34 -10 -11 -12 -19 -5 -24 6 -3 15 5
21 19 11 30 40 34 84 11 44 -23 42 -11 -4 19 -46 30 -80 34 -80 9z"/>
<path d="M4137 4413 c-16 -15 -3 -22 56 -26 34 -3 76 -8 92 -12 l30 -7 -30 26
c-24 20 -41 25 -86 26 -31 0 -59 -3 -62 -7z"/>
<path d="M4120 4370 c0 -5 5 -10 10 -10 6 0 10 5 10 10 0 6 -4 10 -10 10 -5 0
-10 -4 -10 -10z"/>
<path d="M4485 4310 c3 -5 8 -10 11 -10 2 0 4 5 4 10 0 6 -5 10 -11 10 -5 0
-7 -4 -4 -10z"/>
<path d="M2910 4218 c0 -33 -6 -58 -16 -69 -21 -24 -10 -43 17 -28 11 6 28 18
38 28 17 17 17 20 -2 69 -11 29 -24 52 -28 52 -5 0 -9 -23 -9 -52z"/>
<path d="M2781 4234 c-22 -28 -25 -42 -15 -68 12 -30 33 -17 36 22 2 29 8 38
25 40 17 2 23 -3 28 -28 8 -37 25 -30 25 11 0 19 -5 29 -15 29 -8 0 -15 5 -15
10 0 21 -49 9 -69 -16z"/>
<path d="M4116 4245 c4 -10 20 -15 45 -15 22 0 47 -4 57 -8 33 -17 177 -64
211 -69 23 -4 32 -2 27 6 -4 6 -16 11 -27 11 -10 0 -19 5 -19 10 0 6 -13 10
-30 10 -16 0 -30 5 -30 10 0 6 -13 10 -29 10 -16 0 -31 5 -33 11 -2 6 -20 11
-40 12 -21 0 -40 7 -42 14 -3 8 -23 13 -50 13 -36 0 -44 -3 -40 -15z"/>
<path d="M4767 4243 c-9 -8 -9 -58 0 -66 6 -7 33 45 33 64 0 10 -24 12 -33 2z"/>
<path d="M2120 4231 c0 -5 9 -7 20 -4 11 3 20 7 20 9 0 2 -9 4 -20 4 -11 0
-20 -4 -20 -9z"/>
<path d="M4840 4203 c0 -16 -6 -35 -12 -42 -11 -10 -8 -12 12 -9 21 2 25 8 25
37 0 19 -6 36 -12 39 -9 2 -13 -7 -13 -25z"/>
<path d="M3765 4190 c-4 -6 -3 -16 3 -22 13 -13 23 4 13 21 -7 10 -10 10 -16
1z"/>
<path d="M3677 4183 c-11 -10 -8 -43 3 -43 6 0 10 11 10 25 0 26 -2 29 -13 18z"/>
<path d="M3720 4160 c0 -5 5 -10 11 -10 5 0 7 5 4 10 -3 6 -8 10 -11 10 -2 0
-4 -4 -4 -10z"/>
<path d="M4720 4144 c0 -8 5 -12 10 -9 6 3 10 10 10 16 0 5 -4 9 -10 9 -5 0
-10 -7 -10 -16z"/>
<path d="M3790 4131 c0 -12 5 -21 10 -21 6 0 10 6 10 14 0 8 -4 18 -10 21 -5
3 -10 -3 -10 -14z"/>
<path d="M2160 4130 c0 -5 5 -10 11 -10 5 0 7 5 4 10 -3 6 -8 10 -11 10 -2 0
-4 -4 -4 -10z"/>
<path d="M3570 4106 c0 -19 -3 -41 -6 -50 -5 -12 0 -15 20 -14 24 2 26 5 25
53 0 37 -3 45 -9 30 -7 -17 -9 -17 -9 -2 -2 33 -21 17 -21 -17z"/>
<path d="M3756 4076 c7 -63 33 -116 56 -116 16 0 14 7 -14 58 -17 31 -35 68
-39 82 -6 17 -7 9 -3 -24z"/>
<path d="M3653 4094 c-3 -8 -1 -20 6 -27 8 -8 11 -4 11 16 0 30 -7 35 -17 11z"/>
<path d="M3703 4074 c9 -77 30 -169 40 -182 7 -9 13 -9 22 -2 11 9 11 16 -1
38 -8 15 -14 36 -14 47 -1 11 -7 31 -15 45 -8 14 -14 37 -15 52 0 15 -5 30
-11 34 -8 5 -10 -5 -6 -32z"/>
<path d="M3810 4093 c0 -25 20 -63 35 -63 8 0 15 3 15 8 0 12 -49 68 -50 55z"/>
<path d="M3670 3948 c1 -70 23 -153 41 -153 10 0 13 11 11 40 -2 22 -8 41 -13
43 -4 2 -11 30 -15 63 -8 73 -24 78 -24 7z"/>
<path d="M3975 3983 c-29 -7 -39 -20 -41 -52 -1 -15 -13 -46 -27 -68 -15 -23
-29 -52 -32 -66 -6 -22 -4 -24 17 -20 30 6 75 39 66 49 -4 4 -15 1 -24 -7 -16
-13 -16 -12 -6 8 7 12 12 31 12 42 0 12 4 21 9 21 5 0 11 12 13 27 2 18 10 29
23 32 19 3 35 18 35 34 0 8 -13 8 -45 0z"/>
<path d="M3816 3862 c-2 -4 2 -16 10 -27 8 -10 14 -14 14 -8 0 6 3 18 6 27 6
16 -20 24 -30 8z"/>
<path d="M4200 3812 c98 -76 167 -173 211 -294 50 -136 37 -314 -33 -446 -30
-57 -97 -152 -108 -152 -3 0 -18 -12 -35 -28 -45 -41 -104 -76 -170 -102 -82
-32 -253 -39 -335 -14 -70 21 -178 74 -216 105 -85 70 -178 194 -186 250 -4
26 -28 39 -28 15 0 -33 70 -162 118 -219 51 -60 146 -137 169 -137 7 0 13 -4
13 -9 0 -5 10 -11 23 -14 12 -3 49 -16 82 -28 49 -18 82 -23 175 -23 71 -1
134 4 165 13 191 54 330 191 416 411 10 24 14 80 14 175 0 115 -3 149 -19 185
-66 158 -108 213 -253 330 -7 6 -18 10 -25 10 -7 0 3 -13 22 -28z"/>
<path d="M3810 3799 c0 -5 5 -7 10 -4 6 3 10 8 10 11 0 2 -4 4 -10 4 -5 0 -10
-5 -10 -11z"/>
<path d="M3722 3758 c-19 -19 -14 -29 8 -16 20 13 27 28 12 28 -4 0 -13 -5
-20 -12z"/>
<path d="M3287 3443 c-11 -10 -8 -251 2 -258 6 -3 9 49 8 130 -1 74 -2 135 -3
135 0 0 -4 -3 -7 -7z"/>
<path d="M7310 3065 c-14 -17 -15 -17 23 -33 24 -10 27 -10 27 8 0 27 -34 44
-50 25z"/>
<path d="M1 2998 c-1 -30 2 -36 14 -32 10 4 12 10 6 18 -5 6 -11 20 -14 31 -3
12 -5 4 -6 -17z"/>
<path d="M129 3002 c-51 -59 -52 -61 -39 -77 16 -19 22 -19 46 1 19 15 18 15
-3 11 -35 -8 -36 8 -3 44 26 29 37 49 27 49 -2 0 -15 -12 -28 -28z"/>
<path d="M7340 2960 c0 -5 5 -10 10 -10 6 0 10 5 10 10 0 6 -4 10 -10 10 -5 0
-10 -4 -10 -10z"/>
<path d="M165 2950 c-3 -5 -1 -10 4 -10 6 0 11 5 11 10 0 6 -2 10 -4 10 -3 0
-8 -4 -11 -10z"/>
<path d="M6967 2792 c-6 -9 10 -129 19 -143 2 -4 0 -10 -5 -13 -5 -3 -11 2
-15 12 -20 58 -76 126 -91 111 -3 -3 8 -36 25 -72 33 -72 36 -87 19 -87 -6 0
-9 6 -6 14 6 16 -49 73 -60 62 -5 -4 2 -16 15 -26 46 -38 19 -41 -40 -4 -30
19 -43 23 -48 13 -5 -8 13 -27 53 -58 34 -25 69 -54 77 -65 58 -76 90 -129 96
-160 8 -47 21 -46 28 2 5 28 1 49 -19 87 -14 27 -29 51 -34 55 -4 3 -11 16
-14 30 -5 21 0 29 27 48 18 12 39 20 47 17 22 -8 45 11 32 27 -8 9 -9 34 -3
78 4 36 5 68 3 73 -8 14 -23 7 -23 -13 0 -10 -5 -43 -12 -72 l-11 -53 -14 60
c-14 60 -35 96 -46 77z"/>
<path d="M2 2770 c0 -14 2 -19 5 -12 2 6 2 18 0 25 -3 6 -5 1 -5 -13z"/>
<path d="M7116 2748 c-4 -23 -14 -50 -23 -60 -10 -11 -13 -24 -8 -35 5 -10 7
-24 6 -32 -2 -12 5 -28 36 -89 4 -9 138 114 141 130 5 25 0 23 -65 -22 -32
-22 -62 -40 -66 -40 -8 0 -2 10 56 83 46 58 22 66 -34 11 -27 -26 -51 -46 -54
-43 -2 3 7 26 20 52 28 51 32 87 11 87 -8 0 -16 -16 -20 -42z"/>
<path d="M2015 2611 c-10 -17 12 -21 25 -6 10 12 10 15 -3 15 -9 0 -18 -4 -22
-9z"/>
<path d="M6699 2584 c-12 -14 -11 -16 5 -13 11 2 21 10 24 17 5 17 -13 15 -29
-4z"/>
<path d="M2115 2580 c-8 -13 -1 -24 14 -19 6 3 7 10 2 18 -6 10 -10 10 -16 1z"/>
<path d="M7271 2581 c-33 -9 -39 -31 -9 -31 24 0 48 16 48 32 0 9 -5 9 -39 -1z"/>
<path d="M6639 2540 c-13 -10 -19 -19 -13 -20 7 0 22 9 35 20 13 10 19 19 13
20 -7 0 -22 -9 -35 -20z"/>
<path d="M6785 2530 c4 -6 11 -8 16 -5 14 9 11 15 -7 15 -8 0 -12 -5 -9 -10z"/>
<path d="M7060 2528 c0 -7 5 -20 10 -28 7 -12 12 -12 21 -3 9 9 9 16 -1 28
-15 18 -30 20 -30 3z"/>
<path d="M7320 2531 c0 -5 9 -7 20 -4 11 3 20 7 20 9 0 2 -9 4 -20 4 -11 0
-20 -4 -20 -9z"/>
<path d="M6694 2509 c-10 -16 11 -32 34 -25 11 4 23 13 26 21 4 11 -2 15 -24
15 -16 0 -32 -5 -36 -11z"/>
<path d="M6820 2513 c0 -4 9 -14 21 -21 35 -22 55 -89 62 -206 7 -106 8 -110
45 -160 21 -28 44 -71 51 -95 7 -24 16 -40 20 -35 13 14 22 64 12 64 -5 0 -12
8 -15 18 -4 10 -26 39 -50 65 -43 44 -44 48 -42 99 4 77 -20 217 -42 248 -18
24 -62 41 -62 23z"/>
<path d="M7198 2497 c-14 -12 -31 -31 -37 -43 -17 -35 -41 -166 -41 -227 0
-50 2 -58 18 -55 13 2 18 15 19 58 6 127 35 225 78 258 14 11 25 23 25 26 0
14 -37 4 -62 -17z"/>
<path d="M2060 2501 c0 -10 26 -9 36 2 4 4 -2 7 -14 7 -12 0 -22 -4 -22 -9z"/>
<path d="M2145 2500 c3 -5 8 -10 11 -10 2 0 4 5 4 10 0 6 -5 10 -11 10 -5 0
-7 -4 -4 -10z"/>
<path d="M6160 2490 c-17 -10 -13 -17 15 -22 12 -2 21 3 23 15 4 18 -14 22
-38 7z"/>
<path d="M6520 2473 c0 -28 15 -44 33 -37 21 8 21 9 0 34 -21 25 -33 26 -33 3z"/>
<path d="M240 2454 c0 -14 -7 -15 -44 -10 -46 7 -63 -2 -88 -47 -22 -40 -47
-220 -35 -251 5 -13 12 -13 49 4 47 21 83 25 93 10 3 -5 -9 -16 -28 -24 -73
-30 -95 -103 -98 -321 -2 -79 -7 -140 -15 -155 -10 -21 -9 -29 6 -48 10 -12
28 -22 39 -22 12 0 21 -6 21 -14 0 -9 8 -12 25 -8 13 2 33 1 42 -3 17 -6 17
-7 -1 -21 -18 -13 -15 -14 32 -14 73 0 130 25 178 77 27 28 44 41 49 34 4 -7
15 -9 25 -6 25 8 32 -7 31 -70 0 -36 4 -55 13 -58 13 -5 96 3 96 9 0 2 -11 15
-24 29 -14 15 -28 41 -32 58 -10 47 -18 54 -90 68 -36 7 -72 21 -81 31 -15 17
-15 19 2 38 15 16 16 25 7 43 -6 12 -13 75 -15 141 -4 117 -4 119 -35 147 -32
30 -51 36 -68 19 -10 -10 -54 13 -54 30 0 12 80 18 116 8 34 -9 88 -79 122
-158 19 -44 20 -45 30 -20 12 31 -5 66 -64 130 l-42 45 -5 120 c-6 137 -21
186 -67 210 -40 20 -90 20 -90 -1z"/>
<path d="M547 2446 c3 -16 10 -23 19 -19 19 7 18 29 -2 37 -22 8 -22 9 -17
-18z"/>
<path d="M6275 2460 c3 -5 11 -10 17 -10 15 0 48 -40 64 -77 8 -18 14 -60 14
-93 0 -38 4 -59 10 -55 14 9 11 123 -4 165 -7 19 -28 45 -46 58 -34 23 -66 30
-55 12z"/>
<path d="M5968 2435 c5 -26 16 -32 27 -15 7 11 -11 40 -25 40 -4 0 -5 -11 -2
-25z"/>
<path d="M5730 2440 c0 -5 6 -10 13 -10 6 0 23 -16 36 -35 20 -30 25 -52 30
-148 6 -109 7 -114 39 -155 19 -23 38 -58 43 -77 11 -39 23 -44 38 -16 12 22
-20 76 -69 118 -30 24 -30 26 -30 126 0 111 -20 175 -58 196 -26 14 -42 14
-42 1z"/>
<path d="M6195 2440 c4 -6 11 -8 16 -5 14 9 11 15 -7 15 -8 0 -12 -5 -9 -10z"/>
<path d="M6641 2423 c-31 -31 -41 -64 -48 -171 -5 -82 0 -104 20 -96 10 3 14
24 15 67 1 89 11 136 38 179 13 21 24 40 24 43 0 13 -23 3 -49 -22z"/>
<path d="M6084 2417 c-32 -37 -47 -87 -51 -179 -5 -84 -3 -98 10 -98 21 0 27
21 27 91 0 65 23 151 46 170 8 6 14 15 14 20 0 13 -33 10 -46 -4z"/>
<path d="M1120 2396 c0 -27 15 -42 25 -26 8 13 -3 50 -16 50 -5 0 -9 -11 -9
-24z"/>
<path d="M1420 2391 c0 -5 10 -11 22 -13 12 -2 23 -9 26 -17 4 -11 -2 -12 -24
-7 -16 4 -36 13 -44 20 -16 13 -101 15 -137 3 -44 -15 -72 -92 -77 -215 -2
-48 0 -65 11 -69 8 -3 19 -1 26 6 6 6 35 11 64 11 40 0 53 -4 53 -15 0 -11
-11 -15 -39 -15 -32 0 -44 -6 -65 -31 -32 -37 -34 -45 -46 -189 -6 -75 -6
-118 0 -124 14 -14 13 -49 -2 -64 -9 -9 -8 -16 5 -30 28 -31 119 -71 167 -74
l45 -4 -50 -14 -50 -14 35 -7 c78 -17 220 42 220 91 0 13 11 16 50 16 55 0 51
6 55 -89 2 -36 18 -52 41 -39 9 5 35 7 56 5 42 -6 47 3 20 33 -10 10 -30 40
-44 65 l-27 46 -83 11 c-59 9 -88 18 -103 33 l-20 20 21 17 c20 16 20 22 11
144 -9 118 -11 128 -36 151 -31 29 -84 50 -64 25 7 -8 10 -17 8 -20 -8 -7 -79
18 -82 29 -4 10 65 43 88 43 47 0 140 -96 154 -159 7 -33 31 -42 42 -15 8 22
-14 58 -64 107 l-43 42 0 90 c-1 117 -12 162 -49 197 -29 27 -71 38 -71 19z"/>
<path d="M1680 2370 c0 -18 4 -29 10 -25 6 3 10 15 10 25 0 10 -4 22 -10 25
-6 4 -10 -7 -10 -25z"/>
<path d="M2607 2375 c-10 -7 -17 -20 -15 -28 2 -9 10 -5 26 15 25 30 19 37
-11 13z"/>
<path d="M2495 2370 c-4 -6 3 -10 14 -10 25 0 27 6 6 13 -8 4 -17 2 -20 -3z"/>
<path d="M2160 2317 c0 -18 38 -67 51 -67 6 0 9 17 7 38 -3 32 -7 37 -30 40
-19 2 -28 -1 -28 -11z"/>
<path d="M2450 2311 c0 -23 36 -25 45 -3 2 7 0 10 -5 7 -6 -3 -10 -1 -10 4 0
6 -7 11 -15 11 -8 0 -15 -9 -15 -19z"/>
<path d="M2461 2256 c-9 -10 -9 -16 -1 -21 17 -10 -8 -35 -35 -35 -13 0 -31
-3 -41 -7 -16 -6 -16 -7 1 -13 27 -9 86 11 113 38 22 22 22 49 0 36 -6 -4 -14
-1 -18 5 -5 9 -10 8 -19 -3z"/>
<path d="M2155 2250 c3 -5 10 -10 16 -10 5 0 9 5 9 10 0 6 -7 10 -16 10 -8 0
-12 -4 -9 -10z"/>
<path d="M2275 2169 c-15 -6 -9 -8 23 -8 23 -1 42 3 42 8 0 11 -38 11 -65 0z"/>
<path d="M6820 2167 c0 -2 18 -23 40 -46 39 -41 40 -43 42 -121 3 -163 9 -190
39 -190 20 0 21 1 5 25 -12 18 -16 49 -16 125 0 112 -12 155 -55 188 -24 19
-55 29 -55 19z"/>
<path d="M7198 2151 c-34 -27 -47 -80 -53 -207 -3 -59 -9 -112 -15 -118 -6 -8
-3 -16 9 -23 13 -8 17 -19 14 -38 -6 -30 -30 -45 -64 -41 -85 11 -127 20 -146
32 -12 8 -25 14 -28 14 -11 0 -4 -35 12 -52 15 -17 15 -21 -1 -55 -20 -44 -71
-83 -136 -104 l-45 -14 53 -3 c43 -3 62 2 99 23 25 15 53 40 62 57 14 26 20
29 50 24 18 -3 36 -8 40 -11 3 -4 5 -33 4 -66 -1 -52 1 -59 18 -59 13 0 19 7
19 21 0 16 5 20 18 17 17 -5 17 -1 -4 41 -13 25 -24 56 -24 68 0 12 -4 25 -10
28 -25 15 -8 27 32 22 54 -7 78 6 78 43 0 16 -5 32 -10 35 -7 4 -7 12 0 25 5
10 10 58 10 107 1 106 21 197 51 229 28 30 4 34 -33 5z"/>
<path d="M5545 2153 c-22 -2 -49 -7 -60 -12 -11 -5 -38 -17 -60 -27 -22 -9
-61 -19 -88 -22 -26 -3 -50 -8 -53 -13 -3 -5 2 -6 10 -3 9 3 16 1 16 -5 0 -6
7 -11 15 -11 24 0 95 24 95 32 0 5 8 8 19 8 10 0 24 7 31 15 9 11 35 15 101
15 83 0 111 9 73 24 -16 6 -23 6 -99 -1z"/>
<path d="M6370 2146 c0 -8 10 -27 23 -43 38 -46 57 -81 57 -103 0 -30 27 -24
33 8 4 18 -1 33 -14 48 -10 11 -19 24 -19 28 0 8 -67 76 -75 76 -3 0 -5 -6 -5
-14z"/>
<path d="M2686 2135 c-3 -9 -6 -22 -5 -28 0 -7 5 -1 10 12 5 13 8 26 5 28 -2
2 -6 -3 -10 -12z"/>
<path d="M6642 2119 c-36 -37 -41 -55 -51 -182 -4 -50 -11 -99 -15 -109 -5
-11 -1 -18 13 -23 50 -15 10 -87 -44 -81 -123 14 -145 19 -156 32 -6 8 -15 14
-20 14 -13 0 -11 -34 2 -47 13 -13 -3 -64 -30 -97 -29 -34 -90 -57 -148 -57
-69 0 -58 -20 15 -27 71 -6 133 20 181 76 33 38 41 43 58 34 14 -8 23 -8 31 0
14 14 27 -52 17 -89 -7 -24 -9 -25 -12 -8 -10 54 -14 65 -24 65 -6 0 -9 -21
-7 -52 l3 -53 38 -3 c34 -3 37 -1 37 22 0 28 9 33 28 14 20 -20 15 7 -8 44
-11 18 -20 45 -20 60 0 15 -4 30 -10 33 -25 15 -6 26 39 24 52 -3 81 11 81 40
0 9 -5 22 -10 27 -7 7 -7 55 0 150 9 121 14 144 35 176 14 21 25 40 25 43 0
13 -20 2 -48 -26z"/>
<path d="M6103 2118 c-41 -29 -54 -85 -59 -257 -2 -70 -6 -135 -9 -146 -3 -11
1 -29 9 -40 15 -19 15 -19 16 7 0 15 5 30 10 33 12 8 13 52 1 59 -5 4 -3 26 5
53 8 25 14 82 14 126 0 71 4 87 30 134 33 59 30 64 -17 31z"/>
<path d="M6280 2133 c0 -4 13 -21 29 -38 25 -27 29 -42 40 -135 16 -139 19
-150 37 -150 11 0 14 5 10 16 -12 31 -16 60 -25 161 -7 94 -10 103 -37 127
-28 24 -54 34 -54 19z"/>
<path d="M5680 2120 c0 -5 11 -10 25 -10 16 0 39 -14 63 -37 l37 -38 -2 -97
c-1 -82 1 -101 17 -120 22 -28 38 -17 22 15 -6 12 -14 70 -17 129 -7 108 -9
114 -59 156 -18 14 -86 16 -86 2z"/>
<path d="M1984 2073 c7 -22 -37 -82 -48 -65 -3 6 3 20 15 30 14 14 17 22 9 27
-20 13 -109 -41 -121 -73 -6 -15 -8 -15 -14 1 -5 12 0 29 15 49 29 40 18 47
-23 15 -39 -30 -44 -47 -57 -201 -8 -90 -7 -111 5 -123 19 -19 19 -47 0 -63
-21 -18 -19 -24 18 -63 48 -52 101 -73 142 -58 18 6 40 9 49 5 9 -3 16 -1 16
5 0 7 -24 11 -65 11 -52 0 -65 3 -65 16 0 12 9 15 43 13 24 -2 48 0 54 4 6 4
21 -2 33 -13 24 -21 34 -23 88 -20 85 4 161 84 201 209 14 43 4 125 -20 170
-28 52 -98 111 -142 118 -20 3 -40 10 -43 14 -3 5 -25 9 -50 9 -39 0 -45 -3
-40 -17z m152 -42 c-7 -11 -46 -21 -46 -12 0 13 13 21 32 21 11 0 17 -4 14 -9z
m67 -46 c15 -22 16 -25 2 -25 -8 0 -15 -5 -15 -11 0 -6 -7 -3 -16 5 -8 9 -27
16 -42 17 -16 0 -21 3 -12 6 8 4 21 14 28 24 15 22 31 17 55 -16z m-359 -62
c-4 -16 -10 -32 -14 -38 -5 -5 -10 -21 -13 -35 -2 -14 -5 -2 -6 26 -1 46 11
74 31 74 5 0 5 -12 2 -27z m336 2 c0 -12 -19 -12 -23 0 -4 9 -1 12 9 8 7 -3
14 -7 14 -8z m49 -66 c-16 -9 -29 -3 -29 16 0 18 34 24 38 6 2 -7 -2 -17 -9
-22z m-43 -14 c1 -14 -2 -25 -7 -25 -5 0 -9 11 -9 25 0 33 15 33 16 0z m69
-39 c14 18 15 17 9 -11 -10 -47 -25 -70 -34 -55 -4 7 -5 21 -3 31 3 10 0 19
-6 19 -6 0 -11 8 -11 18 1 15 2 15 15 -2 15 -20 15 -20 30 0z m-168 -48 c-3
-8 -6 -5 -6 6 -1 11 2 17 5 13 3 -3 4 -12 1 -19z m92 8 c9 -11 7 -15 -9 -19
-22 -6 -35 7 -25 23 9 14 20 13 34 -4z m-362 -18 c-3 -8 -6 -5 -6 6 -1 11 2
17 5 13 3 -3 4 -12 1 -19z m303 -13 c0 -8 -4 -15 -10 -15 -5 0 -10 7 -10 15 0
8 5 15 10 15 6 0 10 -7 10 -15z m1 -57 c5 1 9 -5 9 -13 0 -8 -2 -15 -5 -15
-12 0 -45 36 -45 50 1 11 4 10 16 -5 8 -11 20 -19 25 -17z m83 26 c9 -3 16
-13 16 -21 0 -10 -6 -13 -16 -9 -8 3 -12 2 -9 -4 3 -6 -2 -13 -12 -17 -10 -4
-21 -11 -25 -17 -4 -6 -10 -7 -15 -3 -4 5 -1 12 7 17 8 5 11 12 7 16 -4 4 0
16 10 26 18 21 16 20 37 12z m-114 -84 c12 -1 12 -3 -2 -11 -20 -11 -71 -1
-62 13 4 5 16 7 28 4 11 -3 28 -6 36 -6z"/>
<path d="M2640 2075 c0 -8 5 -15 10 -15 6 0 10 7 10 15 0 8 -4 15 -10 15 -5 0
-10 -7 -10 -15z"/>
<path d="M2605 2011 c-3 -6 -13 -7 -23 -4 -14 5 -15 3 -5 -7 9 -10 18 -11 35
-3 14 6 18 12 11 16 -7 4 -14 3 -18 -2z"/>
<path d="M2540 1964 c0 -8 5 -12 10 -9 6 3 10 1 10 -4 0 -6 9 -11 20 -11 28 0
25 19 -6 30 -33 13 -34 13 -34 -6z"/>
<path d="M2462 1878 c-6 -7 -17 -44 -25 -83 -19 -90 -57 -195 -79 -219 -10
-11 -18 -23 -18 -27 0 -4 -9 -11 -20 -14 -63 -20 7 -24 312 -19 183 3 335 7
337 10 2 2 -76 5 -175 6 -314 3 -328 4 -332 16 -2 7 -8 12 -13 12 -6 0 -7 -4
-4 -10 3 -6 -5 -10 -19 -10 -22 0 -25 4 -23 33 1 17 10 42 19 55 8 13 13 33
10 44 -4 15 -2 19 7 13 7 -4 11 -16 8 -26 -3 -11 -2 -20 1 -20 49 -10 52 -7
50 35 -2 22 1 51 5 64 5 13 4 22 -2 22 -5 0 -12 -8 -15 -18 -4 -10 -13 -19
-21 -19 -19 0 -21 73 -3 79 7 3 12 23 13 46 1 47 1 47 -13 30z m-87 -338 c3
-5 -1 -10 -9 -10 -9 0 -16 5 -16 10 0 6 4 10 9 10 6 0 13 -4 16 -10z"/>
<path d="M2542 1867 c-8 -9 -9 -18 -3 -21 5 -3 7 -16 3 -28 -4 -17 -2 -20 12
-15 10 4 22 7 27 7 5 0 9 7 9 15 0 8 -4 15 -8 15 -5 0 -13 9 -18 21 -9 19 -11
19 -22 6z"/>
<path d="M5790 1740 c0 -5 9 -17 20 -28 18 -17 18 -20 4 -47 -26 -51 -80 -89
-140 -101 l-39 -7 30 -8 c59 -17 170 41 195 100 15 38 45 43 36 7 -9 -36 5
-147 18 -143 6 3 10 10 8 17 -2 7 -3 53 -3 102 l-1 88 -27 0 c-15 0 -36 7 -47
15 -22 16 -54 20 -54 5z"/>
<path d="M5944 1685 c-3 -14 -2 -44 4 -66 6 -25 7 -52 1 -72 -5 -18 -9 -33 -9
-34 0 -2 11 -3 24 -3 16 0 27 7 31 20 7 24 23 26 31 5 4 -8 11 -15 17 -15 6 0
1 10 -10 23 -24 25 -63 108 -63 132 0 9 10 20 23 25 20 8 19 9 -10 9 -27 1
-34 -4 -39 -24z"/>
<path d="M7 1653 c7 -2 19 -2 26 0 6 3 1 5 -13 5 -14 0 -19 -2 -13 -5z"/>
<path d="M5350 1639 c0 -34 124 -108 196 -115 42 -5 81 16 69 37 -9 13 -31 11
-44 -5 -13 -15 -93 -11 -99 5 -2 5 -8 9 -14 9 -17 0 -88 54 -88 68 0 6 -4 12
-10 12 -5 0 -10 -5 -10 -11z"/>
<path d="M2553 1633 c-7 -3 -13 -11 -13 -19 0 -9 -11 -14 -30 -14 -16 0 -30 4
-30 10 0 5 -9 2 -20 -7 -27 -23 -10 -31 57 -25 42 3 52 8 57 25 6 24 -3 37
-21 30z"/>
<path d="M5270 1633 c0 -7 5 -13 10 -13 6 0 10 -7 10 -15 0 -8 5 -15 10 -15 6
0 10 -7 10 -15 0 -8 5 -15 11 -15 5 0 8 -4 5 -9 -12 -18 32 -42 71 -39 l38 4
-32 13 c-18 7 -33 17 -33 22 0 5 -5 9 -12 9 -6 0 -28 19 -49 43 -21 23 -39 36
-39 30z"/>
<path d="M1607 1613 c-4 -3 -7 -18 -7 -32 0 -13 -10 -35 -22 -48 l-21 -23 37
0 37 0 -3 50 c-4 51 -10 65 -21 53z"/>
<path d="M470 1577 c0 -8 -9 -22 -20 -32 -28 -25 -25 -35 10 -35 28 0 30 3 30
34 0 19 -4 38 -10 41 -5 3 -10 0 -10 -8z"/>
<path d="M6100 1580 c0 -5 5 -10 10 -10 6 0 10 5 10 10 0 6 -4 10 -10 10 -5 0
-10 -4 -10 -10z"/>
<path d="M6660 1570 c33 -26 60 -34 72 -22 7 7 -1 13 -26 17 -20 4 -39 11 -42
16 -3 5 -11 9 -17 9 -7 0 -1 -9 13 -20z"/>
<path d="M7010 1553 c0 -24 5 -43 10 -43 13 0 13 50 0 70 -7 11 -10 4 -10 -27z"/>
<path d="M1050 1569 c0 -7 -10 -23 -22 -36 l-21 -23 31 0 c29 0 32 3 32 29 0
17 -4 33 -10 36 -5 3 -10 1 -10 -6z"/>
<path d="M705 1560 c3 -5 8 -10 11 -10 2 0 4 5 4 10 0 6 -5 10 -11 10 -5 0 -7
-4 -4 -10z"/>
<path d="M7247 1553 c23 -18 113 -17 113 0 0 10 -17 13 -65 13 -55 -1 -63 -3
-48 -13z"/>
<path d="M0 1530 c0 -30 13 -37 38 -22 9 6 6 14 -13 30 l-25 22 0 -30z"/>
<path d="M2230 1551 c0 -6 -10 -11 -22 -11 -34 0 -68 -11 -68 -21 0 -18 76
-10 94 10 11 12 14 21 7 26 -6 3 -11 1 -11 -4z"/>
<path d="M6580 1530 c0 -5 5 -10 11 -10 5 0 7 5 4 10 -3 6 -8 10 -11 10 -2 0
-4 -4 -4 -10z"/>
</g>
</svg>
